<svg width="22" height="22" viewBox="0 0 22 22" fill="none" xmlns="http://www.w3.org/2000/svg">
<path d="M1 1L8.89739 8.89739M8.89739 8.89739L21 21M8.89739 8.89739L8.98261 8.82609C9.99931 7.74023 10.5651 6.3084 10.5652 4.82087V1.43478C10.5652 2.01134 10.7943 2.56428 11.2019 2.97197C11.6096 3.37966 12.1626 3.6087 12.7391 3.6087H17.5217V4.91304C17.5217 5.4896 17.2927 6.04254 16.885 6.45023C16.4773 6.85792 15.9244 7.08696 15.3478 7.08696H14.4783V14.4783M14.4783 19.6957V17.087M7.08696 10.4043C6.53615 10.9492 6.09885 11.5979 5.80033 12.3128C5.50182 13.0278 5.34802 13.7948 5.34783 14.5696V19.2609H4.91304C4.33649 19.2609 3.78354 19.0318 3.37585 18.6241C2.96817 18.2165 2.73913 17.6635 2.73913 17.087V13.6087M7.52174 14.0435H9.69565V14.4783C9.69565 15.7826 9.69565 16.6522 10.3478 17.9565C10.3478 17.9565 11 19.2609 11.8696 19.2609" stroke="#CCFF79"/>
</svg>
