<svg width="127" height="21" viewBox="0 0 127 21" fill="none" xmlns="http://www.w3.org/2000/svg">
<g clip-path="url(#clip0_153_61)">
<path d="M12.7913 6.839C12.1124 7.58192 11.4707 8.35166 10.8001 9.10224C10.4689 9.46987 10.1336 9.83368 9.78173 10.186C9.47126 10.4962 8.96208 10.7834 8.85032 11.2353C8.71371 11.7982 9.07386 12.5411 9.16079 13.1002C9.2767 13.824 9.38433 14.5516 9.48782 15.2792C9.58717 15.98 9.68238 16.6847 9.76931 17.3855C9.81485 17.7493 9.85625 18.1131 9.89764 18.4769C9.92248 18.7105 9.98044 19.4151 10.3861 19.0551C12.0627 17.554 13.6854 15.9992 15.4572 14.5861C16.2727 13.9312 17.0923 13.2841 17.9285 12.6522C18.3591 12.3305 18.7896 12.0127 19.2284 11.6986C19.7293 11.3387 20.2923 11.2046 20.2674 10.5268C20.2592 10.2587 20.255 9.99068 20.255 9.72262C20.2923 9.22095 20.1226 8.69631 19.6796 8.27124C19.6796 8.27124 16.6287 5.36081 16.608 5.34166C16.2727 5.01615 15.9415 4.48385 15.511 4.26174C14.9811 3.98602 14.4223 4.82085 14.1946 5.1387C13.7643 5.73158 13.2985 6.30179 12.7995 6.84666L12.7913 6.839ZM8.8172 9.63071C9.23116 9.69964 10.1129 8.76907 10.3116 8.52398C10.9119 7.78489 11.5369 7.06877 12.1703 6.35648C12.6132 5.85865 13.1141 5.40676 13.5902 4.93956C13.909 4.62937 14.3188 4.38046 14.5796 4.01665C14.9853 3.45372 14.4016 3.14736 14.0249 2.78355C13.702 2.47719 13.3708 2.17466 13.0438 1.87213C12.5677 1.4394 12.0751 1.01815 11.6115 0.573927C11.4186 0.390382 11.1878 0.244482 10.9329 0.144855C10.678 0.0452278 10.4041 -0.00610352 10.1274 -0.00610352C9.85067 -0.00610352 9.57676 0.0452278 9.32185 0.144855C9.06695 0.244482 8.83623 0.390382 8.64333 0.573927C8.22523 0.976025 7.80299 1.37429 7.38488 1.77639C7.23172 1.92191 7.03301 2.07126 7.01646 2.2972C6.9999 2.56144 7.16548 2.8678 7.22758 3.12438C7.49665 4.23111 7.73675 5.34166 7.96443 6.45222C8.10932 7.17217 8.25007 7.89211 8.38668 8.61206C8.45291 8.97204 8.38667 8.57377 8.44877 8.93374C8.47361 9.07543 8.61436 9.58859 8.8172 9.62305V9.63071ZM8.82962 11.0629C8.82134 11.017 8.82962 11.04 8.82962 11.0629V11.0629ZM15.9995 15.1605C15.7925 15.3367 15.5855 15.5128 15.3785 15.6852C13.7682 17.0408 12.1744 18.5381 10.3696 19.6564C10.0011 19.8861 10.0922 20.2116 10.1957 20.5486C10.2785 20.8205 10.2578 20.8244 10.5517 20.8818C11.2844 21.0235 12.2158 20.8818 12.9734 20.8818H18.3549C19.4064 20.8818 20.2674 20.0853 20.2674 19.1126C20.2674 17.868 20.2385 16.6234 20.226 15.3788C20.2178 14.7431 20.2178 14.1074 20.226 13.4717C20.2302 13.0619 20.3254 12.656 20.313 12.2424C20.2881 11.5148 19.4023 12.2118 19.129 12.4531L17.912 13.5215C17.2828 14.0691 16.6494 14.6167 16.0119 15.1567L15.9995 15.1605ZM7.94373 11.7561C7.93132 11.7216 7.92304 11.6872 7.91476 11.6527C7.8361 11.2583 7.02473 11.2659 6.70184 11.1319C6.25568 10.9456 5.81532 10.7477 5.3813 10.5383C4.56165 10.1439 3.75856 9.72262 2.95133 9.3052C2.50839 9.07543 2.06959 8.83417 1.63492 8.59291C1.40724 8.46654 1.1837 8.33634 0.960163 8.21379C0.591735 8.01466 0.335077 8.52781 0.198469 8.79205C0.0494423 9.08309 -0.0126523 9.40477 0.0121855 9.72262L0.00390625 19.1164C0.00390625 20.0891 0.864951 20.8856 1.91642 20.8856H5.85322C6.47416 20.8856 7.09925 20.8703 7.71605 20.8818C8.33286 20.8933 8.9952 21.1269 9.58303 20.9163C10.0053 20.7631 9.22702 18.81 9.15251 18.4194C9.01176 17.6612 8.88757 16.8991 8.74682 16.1409C8.60194 15.352 8.46119 14.5631 8.32044 13.7742C8.25007 13.3645 8.17969 12.9547 8.10518 12.545C8.0762 12.388 8.06792 12.2271 8.04309 12.0701C8.02653 11.9629 7.97685 11.8671 7.94373 11.7637V11.7561ZM3.4812 8.3708C4.18908 8.73078 4.88454 9.1099 5.56344 9.512C6.26304 9.92558 6.87157 10.5306 7.65396 10.8179C7.76987 10.1592 7.4594 9.43924 7.36004 8.79205C7.25241 8.09508 7.14892 7.39428 7.04957 6.69731C6.95436 6.00417 6.86329 5.31103 6.7805 4.61406C6.70598 3.98985 6.71012 3.35032 6.57351 2.73377C6.2589 2.82951 5.93187 3.01332 5.70419 3.2316C5.3606 3.55711 5.02115 3.88262 4.67756 4.21196C4.24704 4.62172 3.81651 5.0353 3.38599 5.44506C3.07138 5.74376 2.76091 6.04246 2.44629 6.33733C2.23931 6.53264 1.97023 6.70497 1.76325 6.91559C1.68046 6.99984 1.49004 7.17217 1.4859 7.29471C1.48176 7.45938 1.61837 7.47087 1.77153 7.54746C1.96196 7.6432 2.15238 7.73128 2.3428 7.82318C2.72779 8.00317 3.11278 8.1755 3.48948 8.36697L3.4812 8.3708ZM33.477 11.5493C33.477 10.343 33.3694 9.3703 31.7922 9.3703C30.6207 9.3703 29.9501 10.3085 29.9501 11.1817V14.632C29.9501 15.7388 30.7821 15.218 30.7821 15.8537C30.7821 16.137 30.5876 16.3055 30.1281 16.3055H27.4704C27.0109 16.3055 26.8163 16.137 26.8163 15.8537C26.8163 15.218 27.6484 15.7349 27.6484 14.632V10.5421C27.6484 9.23627 26.7087 9.87197 26.7087 9.10224C26.7087 8.46654 28.6585 8.12954 29.0145 8.12954C29.5485 8.12954 29.6189 8.46654 29.652 9.46987C30.4303 8.61589 31.3906 8.12954 32.5746 8.12954C34.7727 8.12954 35.7828 9.16734 35.7828 11.4153V14.632C35.7828 15.7388 36.6149 15.218 36.6149 15.8537C36.6149 16.137 36.4203 16.3055 35.9608 16.3055H33.3032C32.8437 16.3055 32.6491 16.137 32.6491 15.8537C32.6491 15.218 33.4812 15.7349 33.4812 14.632V11.5493H33.477ZM43.971 16.3094C43.2259 16.3094 43.1555 15.9417 43.1928 15.4056H43.1224C42.6256 16.1102 41.5079 16.4779 40.324 16.4779C38.3038 16.4779 37.2027 15.306 37.2027 13.9963C37.2027 11.7178 40.4647 10.8447 43.0148 10.8447C43.0148 9.87197 42.4104 9.1367 41.243 9.1367C39.8438 9.1367 39.7196 10.1094 38.5853 10.1094C38.159 10.1094 37.8071 9.89112 37.8071 9.43924C37.8071 8.63504 39.5457 8.13337 41.1229 8.13337C43.4453 8.13337 45.3247 8.93757 45.3247 11.0821V14.6857C45.3247 15.5243 46.2106 15.306 46.2106 15.7924C46.2106 16.16 46.0698 16.3132 45.3619 16.3132H43.9793L43.971 16.3094ZM43.0148 11.7523C40.9574 11.7523 39.6492 12.9241 39.6492 13.981C39.6492 14.7508 40.324 15.5396 41.243 15.5396C42.3938 15.5396 42.9816 14.5018 43.0148 13.6976V11.7523ZM51.7328 8.29804C52.1385 8.29804 52.4076 8.43208 52.4076 8.83417C52.4076 9.23627 52.1427 9.3703 51.7328 9.3703H50.2798V14.2299C50.2798 15.0188 50.5613 15.2371 51.4679 15.2371C52.2834 15.2371 52.4945 15.3558 52.4945 15.7235C52.4945 16.1256 52.3 16.3094 51.8736 16.3094H49.3567C48.2224 16.3094 47.974 16.1256 47.974 15.2218V9.37413H47.2455C46.7322 9.37413 46.5707 9.25542 46.5707 8.838C46.5707 8.42059 46.906 8.35166 47.5642 8.30187C49.5844 8.11806 49.0007 5.38762 49.8162 5.38762C50.1887 5.38762 50.2757 5.55612 50.2757 6.05778V8.30187H51.7287L51.7328 8.29804ZM60.5627 16.3094C59.6768 16.3094 59.6064 16.026 59.4988 15.2524C58.7371 16.0068 57.6732 16.474 56.5555 16.474C54.4981 16.474 53.6495 15.2333 53.6495 13.7091V10.2741C53.6495 9.08309 52.834 9.6039 52.834 8.96821C52.834 8.43208 54.9618 8.12954 55.2267 8.12954C55.6531 8.12954 55.9553 8.33251 55.9553 9.3703V13.3415C55.9553 14.8656 56.3444 15.2371 57.371 15.2371C58.3977 15.2371 59.3581 14.632 59.3581 13.6938V10.2741C59.3581 9.08309 58.5425 9.6039 58.5425 8.96821C58.5425 8.43208 60.6703 8.12954 60.9353 8.12954C61.3616 8.12954 61.6638 8.33251 61.6638 9.3703V14.6818C61.6638 15.6047 62.5663 15.4018 62.5663 15.8537C62.5663 16.1064 62.4421 16.3055 61.9122 16.3055H60.5668L60.5627 16.3094ZM70.6634 16.3094C69.7775 16.3094 69.7072 16.026 69.5995 15.2524C68.8378 16.0068 67.7739 16.474 66.6562 16.474C64.5988 16.474 63.7502 15.2333 63.7502 13.7091V10.2741C63.7502 9.08309 62.9347 9.6039 62.9347 8.96821C62.9347 8.43208 65.0625 8.12954 65.3274 8.12954C65.7538 8.12954 66.056 8.33251 66.056 9.3703V13.3415C66.056 14.8656 66.4451 15.2371 67.4759 15.2371C68.5067 15.2371 69.4588 14.632 69.4588 13.6938V10.2741C69.4588 9.08309 68.6433 9.6039 68.6433 8.96821C68.6433 8.43208 70.771 8.12954 71.036 8.12954C71.4624 8.12954 71.7646 8.33251 71.7646 9.3703V14.6818C71.7646 15.6047 72.667 15.4018 72.667 15.8537C72.667 16.1064 72.5428 16.3055 72.0129 16.3055H70.6675L70.6634 16.3094ZM74.1738 16.3094C73.7143 16.3094 73.5198 16.1409 73.5198 15.8575C73.5198 15.2218 74.3518 15.7388 74.3518 14.6359V11.2506C74.3518 9.32435 73.1637 10.0443 73.1637 9.32435C73.1637 8.838 73.6978 8.73844 74.1904 8.50484C74.563 8.33634 75.1673 8.1372 75.4157 8.1372C76.194 8.1372 76.3182 9.56178 76.372 10.0979H76.4092C76.8149 9.175 77.7008 8.1372 78.7647 8.1372C79.4933 8.1372 79.9528 8.65802 79.9528 9.30903C79.9528 9.76091 79.7416 10.2473 79.1207 10.2473C78.8558 10.2473 78.4128 9.9792 78.0568 9.9792C77.3324 9.9792 76.6576 11.1357 76.6576 12.3918V14.6359C76.6576 15.7426 77.4897 15.2218 77.4897 15.8575C77.4897 16.1409 77.2951 16.3094 76.8356 16.3094H74.178H74.1738ZM83.3762 9.03714C84.1752 8.45122 85.1314 8.13337 86.125 8.13337C88.3231 8.13337 89.3332 9.17117 89.3332 11.4191V14.6359C89.3332 15.7426 90.1652 15.2218 90.1652 15.8575C90.1652 16.1409 89.9707 16.3094 89.5112 16.3094H86.8535C86.394 16.3094 86.1995 16.1409 86.1995 15.8575C86.1995 15.2218 87.0315 15.7388 87.0315 14.6359V11.5531C87.0315 10.3468 86.9239 9.37413 85.2225 9.37413C84.051 9.37413 83.3804 10.3124 83.3804 11.1855V14.6359C83.3804 15.7426 84.2124 15.2218 84.2124 15.8575C84.2124 16.1409 84.0179 16.3094 83.5584 16.3094H80.9007C80.4412 16.3094 80.2467 16.1409 80.2467 15.8575C80.2467 15.2218 81.0787 15.7388 81.0787 14.6359V5.71695C81.0787 4.89744 80.1225 5.08126 80.1225 4.57576C80.1225 4.32301 80.3874 4.27323 80.582 4.17366C80.9877 3.97453 82.2461 3.53797 82.7429 3.53797C83.2934 3.53797 83.3804 3.89028 83.3804 4.64469V9.03714H83.3762ZM98.3162 16.3094C97.4303 16.3094 97.3599 16.026 97.2523 15.2524C96.4906 16.0068 95.4267 16.474 94.309 16.474C92.2516 16.474 91.403 15.2333 91.403 13.7091V10.2741C91.403 9.08309 90.5875 9.6039 90.5875 8.96821C90.5875 8.43208 92.7153 8.12954 92.9802 8.12954C93.4066 8.12954 93.7088 8.33251 93.7088 9.3703V13.3415C93.7088 14.8656 94.0979 15.2371 95.1287 15.2371C96.1594 15.2371 97.1116 14.632 97.1116 13.6938V10.2741C97.1116 9.08309 96.2961 9.6039 96.2961 8.96821C96.2961 8.43208 98.4238 8.12954 98.6888 8.12954C99.1151 8.12954 99.4173 8.33251 99.4173 9.3703V14.6818C99.4173 15.6047 100.32 15.4018 100.32 15.8537C100.32 16.1064 100.196 16.3055 99.6657 16.3055H98.3203L98.3162 16.3094ZM101.599 16.3094C101.139 16.3094 100.945 16.16 100.945 15.8728C100.945 15.2371 101.777 15.7541 101.777 14.6512V10.3124C101.777 9.49285 100.821 9.67667 100.821 9.17117C100.821 8.91842 101.069 8.81886 101.28 8.76907C101.545 8.70014 102.948 8.13337 103.441 8.13337C103.992 8.13337 104.079 8.48569 104.079 9.4086V14.655C104.079 15.7618 104.911 15.2409 104.911 15.8766C104.911 16.16 104.716 16.3132 104.257 16.3132H101.599V16.3094ZM104.132 6.18798C104.132 6.92708 103.565 7.35981 102.663 7.35981C101.847 7.35981 101.264 6.92325 101.264 6.18798C101.264 5.45272 101.847 5.01615 102.733 5.01615C103.565 5.01615 104.132 5.46804 104.132 6.18798ZM109.576 8.12954C111.472 8.12954 112.519 8.83417 112.519 9.35116C112.519 10.4081 112.432 10.4923 112.13 10.4923C111.352 10.4923 111.368 9.1367 109.576 9.1367C108.425 9.1367 108.16 9.80687 108.16 10.2434C108.16 11.8174 112.929 10.7796 112.929 13.5942C112.929 15.3711 111.368 16.4779 109.046 16.4779C107.043 16.4779 105.627 15.2371 105.627 14.6857C105.627 14.2989 105.875 13.8317 106.335 13.8317C107.221 13.8317 107.204 15.4745 108.992 15.4745C109.915 15.4745 110.623 14.9729 110.623 14.2836C110.623 12.4722 105.925 13.7972 105.925 10.814C105.925 8.93757 107.858 8.13337 109.576 8.13337V8.12954ZM117.056 15.4899C117.056 17.9369 116.154 19.5951 114.096 19.5951C113.492 19.5951 112.465 19.3615 112.465 18.6415C112.465 18.1552 112.892 17.8527 113.368 17.8527C113.952 17.8527 114.254 18.2892 114.432 18.2892C114.713 18.2892 114.751 17.6842 114.751 16.497V10.3085C114.751 9.48902 113.794 9.67284 113.794 9.16734C113.794 8.91459 114.043 8.81503 114.254 8.76524C114.519 8.69631 115.922 8.12954 116.415 8.12954C116.965 8.12954 117.052 8.48186 117.052 9.40477V15.4899H117.056ZM117.11 6.18798C117.11 6.92708 116.543 7.35981 115.641 7.35981C114.825 7.35981 114.241 6.92325 114.241 6.18798C114.241 5.45272 114.825 5.01615 115.711 5.01615C116.543 5.01615 117.11 5.46804 117.11 6.18798ZM123.436 8.12954C124.926 8.12954 126.876 8.78439 126.855 10.4579C126.838 12.7211 122.815 13.1232 120.968 13.2228C121.179 14.4789 122.227 15.2677 123.452 15.2677C124.499 15.218 125.191 14.9001 125.932 14.2606C126.143 14.0768 126.267 13.9083 126.586 13.9083C126.867 13.9083 126.991 14.0768 126.991 14.2951C126.991 15.1337 125.042 16.474 122.897 16.474C120.451 16.474 118.393 14.9001 118.377 12.5028C118.393 9.90644 120.116 8.12954 123.427 8.12954H123.436ZM120.832 12.319C121.755 12.2348 124.553 11.9016 124.553 10.2243C124.553 9.46987 124.073 9.03331 123.278 9.03331C121.577 9.03331 120.799 10.6417 120.832 12.319Z" fill="white"/>
</g>
<defs>
<clipPath id="clip0_153_61">
<rect width="127" height="21.001" fill="white"/>
</clipPath>
</defs>
</svg>
